<svg xmlns="http://www.w3.org/2000/svg" xmlns:xlink="http://www.w3.org/1999/xlink" version="1.1" x="0px" y="0px" viewBox="0 0 1024 1024" style="enable-background:new 0 0 1024 1024;" xml:space="preserve"><g><g><g><path d="M874.5,512.5c0,17.6-1.2,35.2-3.5,52.7c0.4-2.7,0.7-5.3,1.1-8c-4.7,34.3-13.8,67.9-27.3,99.8     c1-2.4,2-4.8,3-7.2c-7.8,18.2-16.8,35.9-27.2,52.8c-5.1,8.2-10.4,16.2-16.1,24c-1.3,1.8-2.6,3.5-3.9,5.3c-0.8,1-1.6,2.1-2.4,3.1     c-3.2,4.3,4.8-6.1,1.5-1.9c-3,3.8-6,7.5-9.1,11.2c-12.5,14.8-26.2,28.7-40.8,41.5c-3.4,3-6.9,6-10.5,8.9     c-1.7,1.4-3.4,2.8-5.1,4.1c-1.7,1.4-6,4.5,1.9-1.5c-1.4,1.1-2.8,2.1-4.2,3.2c-7.7,5.8-15.6,11.3-23.7,16.4     c-18.6,11.9-38.1,22.1-58.4,30.7c2.4-1,4.8-2,7.2-3c-31.9,13.4-65.5,22.6-99.8,27.3c2.7-0.4,5.3-0.7,8-1.1     c-35,4.6-70.5,4.6-105.5,0c2.7,0.4,5.3,0.7,8,1.1c-34.3-4.7-67.9-13.8-99.8-27.3c2.4,1,4.8,2,7.2,3     c-18.2-7.8-35.9-16.8-52.8-27.2c-8.2-5.1-16.2-10.4-24-16.1c-1.8-1.3-3.5-2.6-5.3-3.9c-1-0.8-2.1-1.6-3.1-2.4     c-4.3-3.2,6.1,4.8,1.9,1.5c-3.8-3-7.5-6-11.2-9.1c-14.8-12.5-28.7-26.2-41.5-40.8c-3-3.4-6-6.9-8.9-10.5     c-1.4-1.7-2.8-3.4-4.1-5.1c-1.4-1.7-4.5-6,1.5,1.9c-1.1-1.4-2.1-2.8-3.2-4.2c-5.8-7.7-11.3-15.6-16.4-23.7     c-11.9-18.6-22.1-38.1-30.7-58.4c1,2.4,2,4.8,3,7.2c-13.4-31.9-22.6-65.5-27.3-99.8c0.4,2.7,0.7,5.3,1.1,8     c-4.6-35-4.6-70.5,0-105.5c-0.4,2.7-0.7,5.3-1.1,8c4.7-34.3,13.8-67.9,27.3-99.8c-1,2.4-2,4.8-3,7.2     c7.8-18.2,16.8-35.9,27.2-52.8c5.1-8.2,10.4-16.2,16.1-24c1.3-1.8,2.6-3.5,3.9-5.3c0.8-1,1.6-2.1,2.4-3.1     c3.2-4.3-4.8,6.1-1.5,1.9c3-3.8,6-7.5,9.1-11.2c12.5-14.8,26.2-28.7,40.8-41.5c3.4-3,6.9-6,10.5-8.9c1.7-1.4,3.4-2.8,5.1-4.1     c1.7-1.4,6-4.5-1.9,1.5c1.4-1.1,2.8-2.1,4.2-3.2c7.7-5.8,15.6-11.3,23.7-16.4c18.6-11.9,38.1-22.1,58.4-30.7c-2.4,1-4.8,2-7.2,3     c31.9-13.4,65.5-22.6,99.8-27.3c-2.7,0.4-5.3,0.7-8,1.1c35-4.6,70.5-4.6,105.5,0c-2.7-0.4-5.3-0.7-8-1.1     c34.3,4.7,67.9,13.8,99.8,27.3c-2.4-1-4.8-2-7.2-3c18.2,7.8,35.9,16.8,52.8,27.2c8.2,5.1,16.2,10.4,24,16.1     c1.8,1.3,3.5,2.6,5.3,3.9c1,0.8,2.1,1.6,3.1,2.4c4.3,3.2-6.1-4.8-1.9-1.5c3.8,3,7.5,6,11.2,9.1c14.8,12.5,28.7,26.2,41.5,40.8     c3,3.4,6,6.9,8.9,10.5c1.4,1.7,2.8,3.4,4.1,5.1c1.4,1.7,4.5,6-1.5-1.9c1.1,1.4,2.1,2.8,3.2,4.2c5.8,7.7,11.3,15.6,16.4,23.7     c11.9,18.6,22.1,38.1,30.7,58.4c-1-2.4-2-4.8-3-7.2c13.4,31.9,22.6,65.5,27.3,99.8c-0.4-2.7-0.7-5.3-1.1-8     C873.3,477.3,874.5,494.9,874.5,512.5c0,15.7,13.8,30.7,30,30c16.2-0.7,30-13.2,30-30c-0.2-86.1-26.6-172.2-76.7-242.4     c-50.5-70.8-120.4-124.5-202.1-154.6c-82-30.2-174.5-32.9-258.4-9.1c-80.9,23-155.2,70.8-208.7,135.8     c-28.4,34.5-50.8,72.1-67.7,113.4c-16.5,40.2-25.8,82.9-29.2,126.1c-6.7,86.4,14.6,175,59.6,249c43.4,71.5,108.6,130.6,185,165.1     c41.7,18.8,84.9,30.7,130.3,36c44,5.1,88.8,2.6,132.2-6.2c82.7-16.8,160.2-60.2,218.5-121.3c58.5-61.3,98.9-140.4,111.6-224.3     c3.4-22.4,5.5-44.9,5.6-67.5c0-15.7-13.8-30.7-30-30C888.2,483.2,874.5,495.7,874.5,512.5z"/></g></g><g><g><path d="M541.5,704c0-27.9,0-55.8,0-83.7c0-44.3,0-88.5,0-132.8c0-10.2,0-20.4,0-30.5c0-15.7-13.8-30.7-30-30     c-16.3,0.7-30,13.2-30,30c0,27.9,0,55.8,0,83.7c0,44.3,0,88.5,0,132.8c0,10.2,0,20.4,0,30.5c0,15.7,13.8,30.7,30,30     C527.8,733.3,541.5,720.8,541.5,704L541.5,704z"/></g></g><g><g><path d="M541.5,346c0-9,0-18,0-27c0-15.7-13.8-30.7-30-30c-16.3,0.7-30,13.2-30,30c0,9,0,18,0,27     c0,15.7,13.8,30.7,30,30C527.8,375.3,541.5,362.8,541.5,346L541.5,346z"/></g></g></g></svg>