<svg xmlns:dc="http://purl.org/dc/elements/1.1/" xmlns:cc="http://creativecommons.org/ns#" xmlns:rdf="http://www.w3.org/1999/02/22-rdf-syntax-ns#" xmlns:svg="http://www.w3.org/2000/svg" xmlns="http://www.w3.org/2000/svg" xmlns:sodipodi="http://sodipodi.sourceforge.net/DTD/sodipodi-0.dtd" xmlns:inkscape="http://www.inkscape.org/namespaces/inkscape" version="1.1" x="0px" y="0px" viewBox="0 0 100 125"><g transform="translate(0,-952.36218)"><path d="m 3.3309,1015.0901 1.4142,1.4142 7.7783,7.7781 1.4142,1.4143 1.4142,-1.4143 c 3.5314,-3.5314 9.1966,-3.5313 12.7279,0 3.5315,3.5316 3.5314,9.1965 0,12.728 l -1.4142,1.4142 1.4142,1.4142 7.7782,7.7782 1.4142,1.4142 1.4142,-1.4142 56.5686,-56.56854 1.4142,-1.41422 -1.4142,-1.41421 -7.7782,-7.77817 -1.4142,-1.41422 -1.4142,1.41422 c -3.5315,3.53143 -9.1964,3.53151 -12.728,0 -3.5313,-3.53136 -3.5314,-9.19649 0,-12.72793 l 1.4142,-1.41421 -1.4142,-1.41421 -7.7781,-7.77818 -1.4143,-1.41421 -1.4142,1.41421 -56.5685,56.56847 -1.4142,1.4143 z m 5.6568,0 36.0625,-36.06246 28.2842,28.28426 -36.0623,36.0624 -5.1045,-5.1044 c 3.7059,-5.0777 3.3185,-12.2378 -1.2595,-16.8159 -4.5782,-4.5781 -11.7601,-4.9879 -16.8379,-1.2816 l -5.0824,-5.0823 z m 38.8909,-38.89088 14.8492,-14.84925 5.0824,5.08233 c -3.7063,5.07783 -3.2965,12.25983 1.2816,16.83798 4.5781,4.57808 11.7381,4.96533 16.8159,1.25954 l 5.1044,5.10442 -14.8492,14.84926 -28.2843,-28.28428 z m -12.7279,21.2132 3.9334,9.23658 -6.8059,7.6898 10.0983,-1.0828 5.0382,8.662 2.3202,-9.9215 9.9215,-2.3202 -8.662,-5.0382 1.0828,-10.0983 -7.6898,6.8059 -9.2366,-3.93328 z" style="text-indent:0;text-transform:none;direction:ltr;block-progression:tb;baseline-shift:baseline;color:#FFFFFF;enable-background:accumulate;" fill="#FFFFFF" fill-opacity="1" stroke="none" marker="none" visibility="visible" display="inline" overflow="visible"/></g></svg>