<svg xmlns="http://www.w3.org/2000/svg" xmlns:xlink="http://www.w3.org/1999/xlink" version="1.1" x="0px" y="0px" viewBox="0 0 160 200" style="enable-background:new 0 0 160 160;" xml:space="preserve"><path d="M105.008,46.215c-1.31-1.31-2.03-3.05-2.03-4.9c0-0.58,0.48-1.05,1.07-1.05c0.29,0,0.57,0.11,0.77,0.31l6.47,6.45  c2.49,2.48,5.62,3.93,8.87,4.37l20.47,13.83c1.04,0.69,2.2,1.04,3.36,1.04c1.44,0,2.87-0.54,4.03-1.59c2.07-1.88,2.58-4.8,1.25-7.28  l-11.38-21.14c0-0.08,0.01-0.15,0.01-0.23c0-4.16-1.63-8.06-4.57-11l-4.49-4.47c-6.87-6.84-16.34-10.17-26-9.12l-0.41,0.05  c-14.8,1.6-26.68,13.48-28.26,28.22c-1.03,9.61,2.31,19.04,9.16,25.87l18.8,18.72c0.65,0.65,0.5,1.35,0.35,1.72  c-0.12,0.29-0.51,0.98-1.49,0.98c-0.31,0-0.62-0.09-0.88-0.26l-4.37-2.83c-9.57-6.21-20.66-9.49-32.08-9.49  c-10.44,0-20.59,2.74-29.56,7.94v-18.98c0-1.93-1.57-3.5-3.5-3.5c-5.5,0-10.67,2.13-14.56,6.01c-3.89,3.88-6.04,9.04-6.04,14.52  v21.54c0,25.81,21.07,46.81,46.97,46.81h56.56c14.79,0,27-10.85,28.73-25.39l1.99-3.15c2.7-4.3,4.13-9.26,4.13-14.33  c0-10.63-4.16-20.62-11.7-28.13L105.008,46.215z M134.798,45.295l6.39,11.87l-11.25-7.6c1.21-0.68,2.36-1.52,3.39-2.54  C133.868,46.485,134.348,45.895,134.798,45.295z M138.318,116.495l-2.41,3.83c-0.3,0.46-0.48,1-0.53,1.55  c-1.02,11.34-10.41,19.88-21.85,19.88h-56.56c-22.04,0-39.97-17.86-39.97-39.81v-21.54c0-3.61,1.41-7.01,3.98-9.56  c1.72-1.72,3.82-2.92,6.12-3.52v21.4c0,1.29,0.71,2.47,1.84,3.08s2.5,0.55,3.58-0.15l2.64-1.73c8.48-5.57,18.34-8.51,28.5-8.51  c10.06,0,19.84,2.89,28.27,8.36l4.21,2.73c-0.43,6.34-5.73,11.37-12.21,11.37h-16.13c-5.45,0-9.89,4.43-9.89,9.87  c0,1,0.15,1.96,0.43,2.87h-6.33c-5.46,0-9.89,4.43-9.89,9.87s4.43,9.87,9.89,9.87h36.75c1.93,0,3.5-1.57,3.5-3.5  c0-1.94-1.57-3.5-3.5-3.5h-36.75c-1.6,0-2.89-1.29-2.89-2.87c0-1.58,1.29-2.87,2.89-2.87h36.75c1.93,0,3.5-1.57,3.5-3.5  s-1.57-3.5-3.5-3.5h-20.96c-1.59,0-2.89-1.29-2.89-2.87s1.3-2.87,2.89-2.87h16.13c9.92,0,18.11-7.52,19.14-17.15  c2.61-0.65,4.82-2.47,5.88-5.04c1.33-3.22,0.59-6.89-1.88-9.35l-18.8-18.72c-5.34-5.33-7.95-12.67-7.14-20.16  c1.23-11.5,10.51-20.76,22.05-22.01l0.41-0.05c7.55-0.82,14.95,1.78,20.31,7.12l4.49,4.47c1.62,1.61,2.51,3.76,2.51,6.04  c0,2.28-0.89,4.42-2.51,6.04c-3.36,3.34-8.81,3.34-12.16,0l-6.47-6.45c-1.53-1.52-3.55-2.35-5.71-2.35c-4.45,0-8.07,3.61-8.07,8.05  c0,3.73,1.45,7.23,4.09,9.86l31.67,31.54c6.21,6.19,9.64,14.42,9.64,23.17C141.378,109.645,140.318,113.315,138.318,116.495z"/><path d="M127.158,33.565c0,0.76-0.3,1.48-0.84,2.02c-0.56,0.56-1.29,0.84-2.03,0.84c-0.73,0-1.47-0.28-2.03-0.84  c-0.54-0.54-0.84-1.26-0.84-2.02c0-0.77,0.3-1.49,0.84-2.03c1.12-1.11,2.94-1.11,4.06,0  C126.858,32.075,127.158,32.795,127.158,33.565z"/></svg>