<svg xmlns="http://www.w3.org/2000/svg" xmlns:xlink="http://www.w3.org/1999/xlink" version="1.1" x="0px" y="0px" viewBox="0 0 48 60" enable-background="new 0 0 48 48" xml:space="preserve"><g><path d="M5.2,12.4H3c-1.7,0-3,1.3-3,3v7.5c0,1.7,1.3,3,3,3h2.2c0.1,1.3,1.1,2.4,2.4,2.7l4.6,1l2.9,14.6c0.3,1.7,1.9,3,3.6,3   c2.3,0,4.1-2.1,3.6-4.4L20,31.2l13.1,2.8c0,0,0,0,0,0V4.2c0,0,0,0,0,0L7.6,9.7C6.3,9.9,5.3,11,5.2,12.4z"/><path d="M48,19.1c0-3.6-2.7-6.5-6.2-6.8V4c0-1.8-1.4-3.2-3.2-3.2h-0.2c-1.8,0-3.2,1.4-3.2,3.2v30.1c0,1.8,1.4,3.2,3.2,3.2h0.2   c1.8,0,3.2-1.4,3.2-3.2v-8.3C45.3,25.6,48,22.7,48,19.1z"/></g></svg>