<svg xmlns="http://www.w3.org/2000/svg" xmlns:xlink="http://www.w3.org/1999/xlink" version="1.1" fill="#FFFFFF" x="0px" y="0px" viewBox="0 0 30 37.5" xml:space="preserve"><g transform="translate(-570 -620)"><g xmlns="http://www.w3.org/2000/svg" xmlns:xlink="http://www.w3.org/1999/xlink"><path d="M594.514,628.021l0.195-3.818l-3.832-0.998L588.709,620L585,621.364L581.291,620l-2.168,3.203l-3.831,0.999l0.194,3.818    L573,631l2.486,2.979l-0.195,3.818l2.477,0.645l-3.14,7.45l4.463-0.289L582,649l3-7.119l3,7.119l2.909-3.396l4.463,0.289    l-3.14-7.449l2.476-0.646l-0.194-3.819L597,631L594.514,628.021z M581.707,647.12l-2.182-2.547l-3.348,0.217l2.567-6.093    l0.378,0.099L581.29,642l3.047-1.12L581.707,647.12z M593.822,644.79l-3.348-0.217l-2.182,2.547l-2.63-6.24l3.046,1.12    l2.168-3.203l0.378-0.099L593.822,644.79z M593.668,637.035l-3.408,0.89l-1.94,2.866L585,639.57l-3.32,1.221l-1.939-2.868    l-3.409-0.888l0.174-3.396l-2.202-2.64l2.202-2.64l-0.173-3.396l3.408-0.889l1.94-2.867L585,622.43l3.319-1.221l1.94,2.868    l3.409,0.888l-0.174,3.396l2.202,2.64l-2.202,2.639L593.668,637.035z"/><path d="M585,625c-3.314,0-6,2.686-6,6s2.686,6,6,6s6-2.686,6-6S588.314,625,585,625z M585,626c2.762,0,5,2.238,5,5s-2.238,5-5,5    s-5-2.238-5-5S582.238,626,585,626z"/></g></g></svg>