<svg xmlns="http://www.w3.org/2000/svg" xmlns:xlink="http://www.w3.org/1999/xlink" version="1.1" x="0px" y="0px" viewBox="0 0 100 125" enable-background="new 0 0 100 100" xml:space="preserve"><g><path fill="#FFFFFF" d="M73.9,16.8H26.7c-6.1,0-11,5-11,11v34.3c0,6.1,5,11,11,11h29.5c4.4,0,8.6,1.6,11.8,4.6l6.7,6.2   c1.1,1.1,2.6,1.6,4.1,1.6c3.4,0,6.1-2.7,6.1-6.1V27.8C84.9,21.7,80,16.8,73.9,16.8z M77.9,77.5l-5.2-4.8   c-4.5-4.2-10.4-6.5-16.6-6.5H26.7c-2.2,0-4-1.8-4-4V27.8c0-2.2,1.8-4,4-4h47.2c2.2,0,4,1.8,4,4V77.5z"/><path fill="#FFFFFF" d="M50.3,46.6c-4.1,0-7.4,2.9-8.2,6.7c-0.2,0.8,0.5,1.6,1.4,1.6h13.7c0.9,0,1.5-0.8,1.4-1.6   C57.7,49.5,54.3,46.6,50.3,46.6z"/><circle fill="#FFFFFF" cx="66.7" cy="40.6" r="3.7"/><circle fill="#FFFFFF" cx="33.9" cy="40.6" r="3.7"/></g></svg>